<?xml version="1.0" encoding="UTF-8"?>
<svg width="1200pt" height="1200pt" version="1.1" viewBox="0 0 1200 1200" xmlns="http://www.w3.org/2000/svg">
 <g>
  <path d="m892.2 69.984h-156.93c-12.852 0-24.625 4.2109-34.379 11.102-250.07 7.1523-451.32 212.64-451.32 464.39l-0.003906 654.53h61.547l0.003906-654.53c0-209.75 161.02-382.52 365.93-401.39 5.2305 21.637 22.152 38.699 43.754 44.062 6.7422 32.051 36.602 56.219 72.422 56.219h36.926c35.484 0 65.113-23.711 72.215-55.309 28.273-4.8477 49.824-29.426 49.824-59.09 0.003906-33.117-26.875-59.984-59.984-59.984zm-12.777 99.77c0 28.355-24.254 51.336-54.191 51.336h-27.109c-29.93 0-54.203-22.992-54.203-51.336v-13.094h135.49l-0.003906 13.094z"/>
  <path d="m834.52 360.49c0 11.039-8.9648 20.004-20.004 20.004-11.051 0-20.004-8.9648-20.004-20.004v-44.004c0-11.051 8.9531-20.004 20.004-20.004 11.039 0 20.004 8.9648 20.004 20.004z"/>
  <path d="m712.46 344.3c-6.3359 9.0352-18.816 11.242-27.863 4.9219-9.0469-6.3477-11.258-18.816-4.9062-27.863l25.246-36.047c6.3242-9.0469 18.805-11.242 27.852-4.9219 9.0469 6.3359 11.258 18.816 4.9062 27.863z"/>
  <path d="m945.07 321.35c6.3359 9.0469 4.1406 21.527-4.9062 27.863-9.0586 6.3359-21.527 4.1289-27.863-4.9219l-25.246-36.035c-6.3242-9.0469-4.1289-21.527 4.9219-27.863 9.0586-6.3359 21.516-4.1406 27.863 4.9062z"/>
 </g>
</svg>
