<?xml version="1.0" encoding="UTF-8"?>
<svg width="1200pt" height="1200pt" version="1.1" viewBox="0 0 1200 1200" xmlns="http://www.w3.org/2000/svg">
 <g>
  <path d="m766.08 342.12h-19.68l-70.32-90.121c-4.3555-5.6523-11.105-8.9375-18.238-8.8789h-33.84v-15.121c0-8.2734-4.4141-15.922-11.578-20.059-7.168-4.1367-15.996-4.1367-23.16 0-7.168 4.1367-11.582 11.785-11.582 20.059v15.602h-35.039c-7.0508-0.17578-13.789 2.9258-18.242 8.3984l-70.32 89.641h-19.559c-8.2734 0-15.918 4.4141-20.059 11.578-4.1367 7.168-4.1367 15.996 0 23.16 4.1406 7.168 11.785 11.582 20.059 11.582h16.441l70.918 142.44c1.9219 3.8633 4.8828 7.1094 8.5508 9.3789 3.668 2.2695 7.8984 3.4688 12.211 3.4609h34.441l-0.003906 404.76h-85.078c-8.2734 0-15.922 4.4141-20.059 11.578-4.1367 7.168-4.1367 15.996 0 23.16 4.1367 7.168 11.785 11.582 20.059 11.582h216.72c8.2773 0 15.922-4.4141 20.059-11.582 4.1367-7.1641 4.1367-15.992 0-23.16-4.1367-7.1641-11.781-11.578-20.059-11.578h-84.719v-404.76h34.441c4.3086-0.007812 8.5312-1.2109 12.195-3.4805 3.668-2.2656 6.6289-5.5039 8.5625-9.3594l70.922-141.96h16.559v0.003906c8.2734 0 15.922-4.4141 20.059-11.582 4.1367-7.1641 4.1367-15.992 0-23.16-4.1367-7.1641-11.785-11.578-20.059-11.578zm-212.16-52.199h92.641l40.922 52.199h-174.48zm89.637 206.88h-19.559v-15.121c0-8.2734-4.4141-15.918-11.578-20.059-7.168-4.1367-15.996-4.1367-23.16 0-7.168 4.1406-11.582 11.785-11.582 20.059v15.121h-20.758l-54.121-108h194.88z"/>
  <path d="m505.08 598.92c5.875-5.8555 8.1797-14.395 6.0508-22.406-2.1328-8.0156-8.375-14.281-16.383-16.441-8.0039-2.1602-16.551 0.11328-22.426 5.9648l-33.719 33.961c-4.3008 4.375-6.6992 10.266-6.6797 16.398 0.019531 6.1328 2.4609 12.012 6.7891 16.355 4.3281 4.3438 10.195 6.8047 16.328 6.8477 6.1328-0.019531 12.008-2.4805 16.32-6.8398z"/>
  <path d="m718.56 566.04c-5.8711-5.8516-14.422-8.125-22.426-5.9648-8.0039 2.1602-14.25 8.4258-16.379 16.441-2.1328 8.0117 0.17188 16.551 6.0469 22.406l34.199 33.598c4.2969 4.3828 10.18 6.8516 16.32 6.8398 6.0117-0.22266 11.703-2.7617 15.883-7.0898 4.1797-4.3242 6.5234-10.102 6.5391-16.117 0.011718-6.0195-2.3008-11.805-6.4609-16.152z"/>
  <path d="m820.68 450.96h-48c-8.2734 0-15.918 4.4141-20.059 11.578-4.1367 7.168-4.1367 15.996 0 23.16 4.1406 7.168 11.785 11.582 20.059 11.582h48c8.2734 0 15.922-4.4141 20.059-11.582 4.1367-7.1641 4.1367-15.992 0-23.16-4.1367-7.1641-11.785-11.578-20.059-11.578z"/>
  <path d="m446.04 474.12c-0.03125-6.1328-2.4805-12.008-6.8164-16.344-4.3359-4.3359-10.211-6.7852-16.344-6.8164h-48c-8.2734 0-15.918 4.4141-20.055 11.578-4.1367 7.168-4.1367 15.996 0 23.16 4.1367 7.168 11.781 11.582 20.055 11.582h48c6.1445 0 12.035-2.4414 16.379-6.7852s6.7812-10.234 6.7812-16.375z"/>
 </g>
</svg>
