<?xml version="1.0" encoding="UTF-8"?>
<svg width="700pt" height="700pt" version="1.1" viewBox="0 0 700 700" xmlns="http://www.w3.org/2000/svg">
 <g>
  <path d="m520.45 40.824h-91.547c-7.4961 0-14.363 2.457-20.055 6.4766-145.87 4.1719-263.27 124.04-263.27 270.89v381.8h35.902v-381.81c0-122.35 93.926-223.14 213.46-234.14 3.0508 12.621 12.922 22.574 25.523 25.703 3.9336 18.695 21.352 32.797 42.246 32.797h21.539c20.699 0 37.98-13.832 42.125-32.262 16.492-2.8281 29.062-17.164 29.062-34.469 0.007812-19.32-15.672-34.992-34.984-34.992zm-7.4531 58.199c0 16.539-14.148 29.945-31.613 29.945h-15.812c-17.457 0-31.617-13.41-31.617-29.945v-7.6367h79.035v7.6367z"/>
  <path d="m486.8 210.29c0 6.4414-5.2305 11.668-11.668 11.668-6.4453 0-11.668-5.2305-11.668-11.668v-25.668c0-6.4453 5.2227-11.668 11.668-11.668 6.4414 0 11.668 5.2305 11.668 11.668z"/>
  <path d="m415.61 200.84c-3.6953 5.2695-10.977 6.5586-16.254 2.8711-5.2773-3.7031-6.5664-10.977-2.8633-16.254l14.727-21.027c3.6875-5.2773 10.969-6.5586 16.246-2.8711 5.2773 3.6953 6.5664 10.977 2.8633 16.254z"/>
  <path d="m551.29 187.45c3.6953 5.2773 2.4141 12.559-2.8633 16.254-5.2852 3.6953-12.559 2.4062-16.254-2.8711l-14.727-21.02c-3.6875-5.2773-2.4062-12.559 2.8711-16.254 5.2852-3.6953 12.551-2.4141 16.254 2.8633z"/>
 </g>
</svg>
