
        <svg xmlns:rdf="http://www.w3.org/1999/02/22-rdf-syntax-ns#" xmlns="http://www.w3.org/2000/svg" xmlns:cc="http://creativecommons.org/ns#" xmlns:xlink="http://www.w3.org/1999/xlink" xmlns:dc="http://purl.org/dc/elements/1.1/" x="0px" y="0px" width="356" height="502" viewBox="0 0 356 502" xml:space="preserve">
            <title>Weather vane</title>
            <desc xmlns:ian_image_library="https://ian.umces.edu/media-library/">
                <ian_image_library:title>Weather vane</ian_image_library:title>
                <ian_image_library:descr>Illustration of weather vane</ian_image_library:descr>
                <ian_image_library:scene>
                    <ian_image_library:contains>science, scientific, research, experimental, test, equipment, field, gear, instrument, weather, vane, wind, direction</ian_image_library:contains>
                    <ian_image_library:when>2005-03-09</ian_image_library:when>
                </ian_image_library:scene>
            </desc>
            <metadata id="metadata-iil-4ba5a27fac7d05147dd36929457da301">
                <rdf:RDF>
                <cc:Work
                rdf:about="">
                <dc:format>image/svg+xml</dc:format>
                <dc:type
                rdf:resource="http://purl.org/dc/dcmitype/StillImage" />
                <cc:license
                rdf:resource="http://creativecommons.org/licenses/by-sa/3.0/" />
                <dc:title>Weather vane</dc:title>
                <dc:date>2005-03-09</dc:date>
                <dc:creator>
                    <cc:Agent>
                        <dc:title></dc:title>
                    </cc:Agent>
                </dc:creator>
                <dc:rights>
                <cc:Agent>
                    <dc:title></dc:title>
                </cc:Agent>
                </dc:rights>
                <dc:publisher>
                <cc:Agent>
                    <dc:title>Integration and Application Network</dc:title>
                </cc:Agent>
                </dc:publisher>
                <dc:identifier>https://ian.umces.edu/media-library/weather-vane/</dc:identifier>
                <dc:source>https://ian.umces.edu/media-library/weather-vane/</dc:source>
                <dc:language>en-US</dc:language>
                <dc:subject>
                <rdf:Bag>
                    <rdf:li>science, scientific, research, experimental, test, equipment, field, gear, instrument, weather, vane, wind, direction</rdf:li>
                </rdf:Bag>
                </dc:subject>
                <dc:coverage></dc:coverage>
                <dc:description>Illustration of weather vane</dc:description>
                <dc:contributor>
                <cc:Agent>
                    <dc:title></dc:title>
                </cc:Agent>
                </dc:contributor>
            </cc:Work>
            <cc:License
                rdf:about="http://creativecommons.org/licenses/by-sa/3.0/">
                <cc:permits
                rdf:resource="http://creativecommons.org/ns#Reproduction" />
                <cc:permits
                rdf:resource="http://creativecommons.org/ns#Distribution" />
                <cc:requires
                rdf:resource="http://creativecommons.org/ns#Notice" />
                <cc:requires
                rdf:resource="http://creativecommons.org/ns#Attribution" />
                <cc:permits
                rdf:resource="http://creativecommons.org/ns#DerivativeWorks" />
                <cc:requires
                rdf:resource="http://creativecommons.org/ns#ShareAlike" />
            </cc:License>
            </rdf:RDF>
            </metadata>
            
 <defs></defs>
 <polygon stroke="#58595B" stroke-width=".25" points="12.863 113.4 12.863 73.48 21.568 74.925 32.461 96.711 32.461 80.007 44.077 85.818 44.077 125.74 38.994 125.74 23.751 96.711 23.751 118.49" fill="#0072BC"/>
 <polygon stroke="#58595B" stroke-width=".25" points="343.21 107.6 343.21 73.48 322.16 85.09 322.16 93.073 332.31 87.273 332.31 91.618 322.16 96.711 322.16 101.78 333.04 96.711 333.04 100.34 322.16 108.32 322.16 119.22" fill="#0072BC"/>
 <polygon stroke="#58595B" stroke-width=".25" points="5.597 264.42 19.391 287.66 25.923 286.2 28.106 268.05 36.822 279.66 41.177 275.32 41.899 246.99 33.184 250.63 35.361 264.42 24.474 255.7 21.568 276.04 12.13 264.42" fill="#0072BC"/>
 <path stroke="#58595B" stroke-width=".25" d="m309.08 253.53c1.271-1.977 7.603-7.211 11.621-6.538 4.008.695 7.982 3.346 9.427 6.538 1.456 3.204 2.271 7.581-1.444 13.065-3.703 5.507-18.115 9.829-11.621 17.432 6.517 7.603 11.534-9.166 16.704-5.811 5.17 3.356-.685 9.981-5.083 12.338-4.398 2.368-4.627 3.878-11.621 2.9-6.994-.956-10.894-6.788-10.154-13.793.717-6.995 12.805-12.121 14.51-15.238 1.716-3.117-.152-4.04-1.444-4.355-1.293-.325-4.464 1.358-6.538 1.456-2.075.087-3.053-1.304-4.355-2.194-1.32-.89-1.3-3.84-.02-5.82z" fill="#0072BC"/>
 <linearGradient id="ian_symbols_8448e544822cf214c5ddd72acdba2824" y2="113.42" gradientUnits="userSpaceOnUse" x2="348.41" y1="113.42" x1="184.54">
  <stop stop-color="#C3C5C7" offset="0"/>
  <stop stop-color="#8E8E8E" offset="1"/>
 </linearGradient>
 <path stroke="#58595B" stroke-width=".25" d="m346.6 66.703c2.899 4.833 1.455 8.71 1.455 8.71l-153.92 87.125s-6.294.478-8.716-2.433c-2.422-2.889.967-8.699.967-8.699l148.59-85.681c-.01-.003 8.72-3.87 11.62.974z" fill="url(#ian_symbols_8448e544822cf214c5ddd72acdba2824)"/>
 <linearGradient id="ian_symbols_4915aaf66077c2345d9a532b3910c1db" y2="111.48" gradientUnits="userSpaceOnUse" x2="-369.2" gradientTransform="matrix(-1 0 0 1 -355.08 0)" y1="111.48" x1="-533.08">
  <stop stop-color="#C3C5C7" offset="0"/>
  <stop stop-color="#8E8E8E" offset="1"/>
 </linearGradient>
 <path stroke="#58595B" stroke-width=".25" d="m15.942 64.759c-2.905 4.844-1.456 8.721-1.456 8.721l153.93 87.115s6.283.489 8.705-2.411-.961-8.721-.961-8.721l-148.6-85.678c-.002 0-8.712-3.866-11.618.967z" fill="url(#ian_symbols_4915aaf66077c2345d9a532b3910c1db)"/>
 <rect height="54.695" width="16.943" stroke="#58595B" y="17.808" x="107.97" stroke-width=".25" fill="#C2151C"/>
 <polygon stroke="#58595B" stroke-width=".25" points="95.384 55.082 107.97 72.502 107.97 17.808 95.384 .387" fill="#D71920"/>
 <polygon stroke="#58595B" stroke-width=".25" points="107.97 17.808 124.91 17.808 111.83 .387 95.384 .387" fill="#AF1116"/>
 <radialGradient id="ian_symbols_f3f6fbf5d3267134798da167dc824335" gradientUnits="userSpaceOnUse" cy="146.68" cx="176.7" r="25.497">
  <stop stop-color="#C3C5C7" offset="0"/>
  <stop stop-color="#E1E2E3" offset=".9494"/>
 </radialGradient>
 <path stroke="#58595B" stroke-width=".25" d="m209.16 146.68c0 8.688-14.532 15.705-32.453 15.705-17.926 0-32.463-7.016-32.463-15.705 0-8.667 14.537-15.705 32.463-15.705 17.91 0 32.45 7.04 32.45 15.7z" fill="url(#ian_symbols_f3f6fbf5d3267134798da167dc824335)"/>
 <linearGradient id="ian_symbols_9f3cf0db23cb0164c9ac102fe160700c" y2="487.32" gradientUnits="userSpaceOnUse" x2="188.31" y1="487.32" x1="167.51">
  <stop stop-color="#C3C5C7" offset="0"/>
  <stop stop-color="#E1E2E3" offset=".2865"/>
  <stop stop-color="#8E8E8E" offset="1"/>
 </linearGradient>
 <polygon stroke="#58595B" stroke-width=".25" points="167.5 475.22 176.76 500.39 188.32 474.24" fill="url(#ian_symbols_9f3cf0db23cb0164c9ac102fe160700c)"/>
 <linearGradient id="ian_symbols_b26243d0c2c02c04f515bd24fd330d47" y2="330.75" gradientUnits="userSpaceOnUse" x2="188.8" y1="330.75" x1="166.53">
  <stop stop-color="#C3C5C7" offset="0"/>
  <stop stop-color="#E1E2E3" offset=".2865"/>
  <stop stop-color="#8E8E8E" offset="1"/>
 </linearGradient>
 <path stroke="#58595B" stroke-width=".25" d="m166.53 180.93v295.25s4.844 3.877 10.16 4.366c5.327.478 12.11-5.322 12.11-5.322v-292.36l-22.27-1.94z" fill="url(#ian_symbols_b26243d0c2c02c04f515bd24fd330d47)"/>
 <linearGradient id="ian_symbols_776294d50e3111d4b553fe9f1e690508" y2="166.69" gradientUnits="userSpaceOnUse" x2="209.16" y1="166.69" x1="144.24">
  <stop stop-color="#C3C5C7" offset="0"/>
  <stop stop-color="#E1E2E3" offset=".2865"/>
  <stop stop-color="#8E8E8E" offset="1"/>
 </linearGradient>
 <path stroke="#58595B" stroke-width=".25" d="m144.24 170.99c0 8.667 14.537 15.705 32.463 15.705 17.92 0 32.453-7.038 32.453-15.705v-24.307c0 8.688-14.532 15.705-32.453 15.705-17.926 0-32.463-7.016-32.463-15.705v24.29z" fill="url(#ian_symbols_776294d50e3111d4b553fe9f1e690508)"/>
 <linearGradient id="ian_symbols_e5d3df5c13da36d4a59861117687b8d2" y2="83.194" gradientUnits="userSpaceOnUse" x2="151.07" y1="91.002" x1="139.49">
  <stop stop-color="#8DAAD1" offset="0"/>
  <stop stop-color="#E1E2E3" offset=".2865"/>
  <stop stop-color="#8199B9" offset="1"/>
 </linearGradient>
 <path stroke="#58595B" stroke-width=".25" d="m123.21 41.897s-3.644-2.911-6.555-1.445c-2.911 1.445-4.638 2.574-4.366 5.822.282 3.247 57.204 89.211 57.204 89.211 2.829-1.803 5.794-3.324 8.857-4.486l-55.14-89.093z" fill="url(#ian_symbols_e5d3df5c13da36d4a59861117687b8d2)"/>
 <linearGradient id="ian_symbols_8d136969b05c4664196bad37e27513c3" y2="130.45" gradientUnits="userSpaceOnUse" x2="188.84" y1="130.45" x1="167.96">
  <stop stop-color="#C3C5C7" offset="0"/>
  <stop stop-color="#E1E2E3" offset=".2865"/>
  <stop stop-color="#8E8E8E" offset="1"/>
 </linearGradient>
 <path stroke="#58595B" stroke-width=".25" d="m188.84 130.46c0 2.78-4.681 5.04-10.437 5.04-5.767 0-10.437-2.259-10.437-5.04 0-2.791 4.67-5.05 10.437-5.05 5.76 0 10.44 2.25 10.44 5.05z" fill="url(#ian_symbols_8d136969b05c4664196bad37e27513c3)"/>
 <linearGradient id="ian_symbols_0495c25f5d01f594794918ff354791ec" y2="140.92" gradientUnits="userSpaceOnUse" x2="188.84" y1="140.92" x1="167.96">
  <stop stop-color="#C3C5C7" offset="0"/>
  <stop stop-color="#E1E2E3" offset=".2865"/>
  <stop stop-color="#8E8E8E" offset="1"/>
 </linearGradient>
 <path stroke="#58595B" stroke-width=".25" d="m167.96 146.31c0 2.791 4.67 5.061 10.437 5.061 5.756 0 10.437-2.27 10.437-5.061v-15.857c0 2.78-4.681 5.04-10.437 5.04-5.767 0-10.437-2.259-10.437-5.04v15.86z" fill="url(#ian_symbols_0495c25f5d01f594794918ff354791ec)"/>
 <linearGradient id="ian_symbols_0f31fadada1cbe3401c9b888106161fc" y2="219.42" gradientUnits="userSpaceOnUse" x2="164" y1="219.42" x1=".125">
  <stop stop-color="#C3C5C7" offset="0"/>
  <stop stop-color="#8E8E8E" offset="1"/>
 </linearGradient>
 <path stroke="#58595B" stroke-width=".25" d="m162.18 172.7c2.905 4.833 1.456 8.71 1.456 8.71l-153.93 87.13s-6.294.478-8.716-2.433c-2.422-2.9.967-8.699.967-8.699l148.6-85.682c.01 0 8.71-3.87 11.62.97z" fill="url(#ian_symbols_0f31fadada1cbe3401c9b888106161fc)"/>
 <linearGradient id="ian_symbols_03ac03743d230254818bc2692da47351" y2="215.55" gradientUnits="userSpaceOnUse" x2="-546.84" gradientTransform="matrix(-1 0 0 1 -355.08 0)" y1="215.55" x1="-710.71">
  <stop stop-color="#C3C5C7" offset="0"/>
  <stop stop-color="#8E8E8E" offset="1"/>
 </linearGradient>
 <path stroke="#58595B" stroke-width=".25" d="m193.58 168.83c-2.905 4.833-1.455 8.71-1.455 8.71l153.93 87.137s6.277.478 8.71-2.433c2.422-2.9-.967-8.711-.967-8.711l-148.6-85.67c.01-.01-8.7-3.89-11.61.96z" fill="url(#ian_symbols_03ac03743d230254818bc2692da47351)"/>
 <linearGradient id="ian_symbols_6a04fa8c651912f4dd6e5320015e2ab6" y2="209.25" gradientUnits="userSpaceOnUse" x2="231.15" y1="218.08" x1="218.06">
  <stop stop-color="#8DAAD1" offset="0"/>
  <stop stop-color="#E1E2E3" offset=".2865"/>
  <stop stop-color="#8199B9" offset="1"/>
 </linearGradient>
 <path stroke="#58595B" stroke-width=".25" d="m270.92 280.58l-82.949-135.35c-1.532.587-3.096-1.922-5.914-.956-2.818.956-4.317 4.431-5.729 5.322l87.316 136.06 7.27-5.07z" fill="url(#ian_symbols_6a04fa8c651912f4dd6e5320015e2ab6)"/>
 <polygon stroke="#58595B" stroke-width=".25" points="270.92 270.39 262.91 275.47 276.02 316.22 289.11 330.06 295.66 326.41" fill="#C2151C"/>
 <polygon stroke="#58595B" stroke-width=".25" points="262.18 308.22 262.91 275.47 289.11 330.06" fill="#D71920"/>
</svg>
